<svg width="23" height="22" viewBox="0 0 23 22" fill="none" xmlns="http://www.w3.org/2000/svg">
<g clip-path="url(#clip0_131_5)">
<circle cx="11.5" cy="10.5" r="10.5" fill="white"/>
<path fill-rule="evenodd" clip-rule="evenodd" d="M0.178955 11C0.178955 19.8717 2.30722 22 11.179 22C20.0507 22 22.179 19.8717 22.179 11C22.179 2.12827 20.0507 0 11.179 0C2.30722 0 0.178955 2.12827 0.178955 11ZM4.61478 13.2851L8.065 5.44394C8.64742 4.12218 9.76755 3.40532 11.179 3.40532C12.5904 3.40532 13.7105 4.12218 14.293 5.44394L17.7431 13.2851C17.9 13.666 18.0343 14.1589 18.0343 14.5845C18.0343 16.5336 16.6677 17.9002 14.7186 17.9002C14.0548 17.9002 13.5275 17.7308 12.9938 17.5593C12.4469 17.3836 11.8933 17.2058 11.179 17.2058C10.4729 17.2058 9.90578 17.3851 9.34804 17.5616C8.80857 17.7324 8.27811 17.9002 7.6393 17.9002C5.69017 17.9002 4.3235 16.5336 4.3235 14.5845C4.3235 14.1589 4.45796 13.666 4.61478 13.2851ZM11.179 6.81065L7.77365 14.5173C8.78176 14.0469 9.94674 13.8228 11.179 13.8228C12.3664 13.8228 13.5761 14.0469 14.5395 14.5173L11.179 6.81065Z" fill="#241AAF"/>
</g>
<defs>
<clipPath id="clip0_131_5">
<rect width="22" height="22" fill="white" transform="translate(0.178955)"/>
</clipPath>
</defs>
</svg>
