<svg width="27" height="28" viewBox="0 0 27 28" fill="none" xmlns="http://www.w3.org/2000/svg">
<path d="M23.0625 3.3125H3.9375L5.625 22.4375L13.5 24.6875L21.375 22.4375L23.0625 3.3125Z" fill="#0277BD"/>
<path d="M13.5 5V22.9438L19.8 21.1438L21.2063 5H13.5Z" fill="#039BE5"/>
<path d="M18.6187 7.8125H13.5V10.0625H16.2562L16.0875 12.3125H13.5V14.5625H15.975L15.8063 17.0938L13.5 17.8812V20.2437L17.9437 18.7812L18.3375 12.3125L18.6187 7.8125Z" fill="white"/>
<path d="M13.5 7.8125V10.0625H8.49375L8.325 7.8125H13.5ZM10.9125 12.3125L11.025 14.5625H13.5V12.3125H10.9125ZM11.1375 15.6875H8.8875L9.05625 18.7812L13.5 20.2437V17.8812L11.1937 17.0938L11.1375 15.6875Z" fill="#EEEEEE"/>
</svg>
