<svg width="23" height="22" viewBox="0 0 23 22" fill="none" xmlns="http://www.w3.org/2000/svg">
<g clip-path="url(#clip0_138_5)">
<path d="M22.2305 4.84003H21.8565C21.3941 4.84003 20.9585 5.05563 20.6773 5.42259L16.8493 10.4285L13.0213 5.42259C12.741 5.05563 12.305 4.84003 11.843 4.84003H11.469L16.2962 11.1523L11.3656 17.6H11.7396C12.202 17.6 12.6376 17.3844 12.9184 17.0175L16.8498 11.8765L20.7812 17.0175C21.0619 17.3844 21.4975 17.6 21.9599 17.6H22.3339L17.4033 11.1523L22.2305 4.84003Z" fill="white"/>
<path d="M9.71689 15.0665C8.59313 16.7741 6.38081 17.6493 4.26573 16.8775C2.40497 16.1986 1.22973 14.3488 1.22973 12.3679V11.88H6.50973H11.3497V10.061C11.3497 7.19881 9.22981 4.69301 6.37993 4.42505C3.10985 4.11749 0.349731 6.69237 0.349731 9.89997V12.3521C0.349731 14.7153 1.76433 16.9123 3.98809 17.7126C6.89341 18.7581 9.94921 17.1978 10.9823 14.52H10.7016C10.3008 14.52 9.93689 14.7316 9.71689 15.0665ZM1.22973 9.89997C1.22973 7.35237 3.30213 5.27997 5.84973 5.27997C8.39733 5.27997 10.4697 7.35237 10.4697 9.89997V11H1.22973V9.89997Z" fill="white"/>
</g>
<defs>
<clipPath id="clip0_138_5">
<rect width="22" height="22" fill="white" transform="translate(0.349731)"/>
</clipPath>
</defs>
</svg>
