<svg width="23" height="22" viewBox="0 0 23 22" fill="none" xmlns="http://www.w3.org/2000/svg">
<path d="M12.0956 7.79167H8.42894C6.65703 7.79167 5.22061 6.35525 5.22061 4.58333C5.22061 2.81142 6.65703 1.375 8.42894 1.375H12.0956V7.79167Z" fill="#E64A19"/>
<path d="M11.6373 14.2084H8.42894C6.65703 14.2084 5.22061 12.7719 5.22061 11C5.22061 9.2281 6.65703 7.79169 8.42894 7.79169H11.6373V14.2084Z" fill="#7C4DFF"/>
<path d="M8.42894 20.625C6.65703 20.625 5.22061 19.1886 5.22061 17.4166C5.22061 15.6447 6.65703 14.2083 8.42894 14.2083H11.6373V17.4166C11.6373 19.1886 10.2009 20.625 8.42894 20.625Z" fill="#66BB6A"/>
<path d="M14.8456 7.79167H11.6373V1.375H14.8456C16.6175 1.375 18.054 2.81142 18.054 4.58333C18.054 6.35525 16.6175 7.79167 14.8456 7.79167Z" fill="#FF7043"/>
<path d="M14.8456 14.2084C16.6175 14.2084 18.054 12.7719 18.054 11C18.054 9.22811 16.6175 7.79169 14.8456 7.79169C13.0737 7.79169 11.6373 9.22811 11.6373 11C11.6373 12.7719 13.0737 14.2084 14.8456 14.2084Z" fill="#29B6F6"/>
</svg>
