<svg width="22" height="20" viewBox="0 0 22 20" fill="none" xmlns="http://www.w3.org/2000/svg">
<path d="M6.28015 17.3201C5.47915 16.6901 4.62515 16.0871 4.04215 15.2371C2.81415 13.7381 1.86915 12.0021 1.22215 10.1781C0.83115 8.99212 0.69815 7.72012 0.19415 6.58012C-0.33285 5.75212 0.28415 4.84712 1.19115 4.58312C1.59515 4.50512 2.30515 4.12512 1.44815 4.39712C0.68015 4.96112 0.60515 3.88512 1.39315 3.81712C1.93115 3.74612 2.12915 3.30512 1.94515 2.90912C1.36815 2.53312 3.34515 2.11912 2.35015 1.55712C1.31415 0.439121 3.80015 0.224121 3.18615 1.49312C3.03915 2.46912 4.92315 1.31412 4.48615 2.44212C4.93015 2.98312 6.15015 2.56512 6.11915 3.32512C6.76615 3.36912 6.98815 3.91412 7.59615 3.95612C8.22615 4.24012 9.36715 4.46412 9.58115 5.17412C8.95615 5.66912 7.51015 4.15212 7.44015 5.52112C7.62915 7.54312 7.58115 9.62712 8.32115 11.5521C8.67115 12.7181 9.51915 13.6361 10.2862 14.5441C11.0192 15.4331 12.0122 16.0601 13.0242 16.5871C13.9122 17.0061 14.8692 17.2831 15.8372 17.4581C16.2292 17.1581 16.9222 16.0421 17.5352 16.5121C17.5642 17.0411 16.3202 17.6171 17.4762 17.5591C18.1552 17.3541 18.6262 18.0841 19.1862 17.4261C19.7012 18.0361 21.3282 17.0361 20.9612 18.2841C20.4652 18.6041 19.7422 18.4111 19.2462 18.8511C18.4272 18.4421 17.7752 19.2171 16.8692 19.1191C15.8622 19.2991 14.8382 19.3721 13.8182 19.3741C12.1442 19.2421 10.4342 19.1861 8.84115 18.6031C7.94415 18.3421 7.06815 17.8311 6.28015 17.3201ZM7.69415 17.9321C8.57015 18.3111 9.42715 18.7101 10.3872 18.8311C11.9102 19.0431 13.4832 19.3691 15.0122 19.0711C14.3202 18.7591 13.6052 19.1931 12.9152 18.8481C12.0882 19.0261 11.2012 18.8031 10.3612 18.6931C9.40515 18.2671 8.37415 17.9751 7.47915 17.4221C6.36115 17.0141 8.05715 17.9461 8.35915 18.0211C9.05815 18.4181 7.59015 17.8181 7.38315 17.6531C6.79715 17.3251 6.72315 17.3931 7.32515 17.7271C7.44715 17.7971 7.56715 17.8721 7.69415 17.9321ZM6.02715 16.7541C6.87615 17.0681 6.02315 16.1571 5.63415 16.2101C5.46215 15.9111 4.97515 15.7221 5.31815 15.5611C4.70115 15.7751 4.67215 14.7471 4.38215 14.8941C3.72915 14.6881 4.12815 13.9581 3.35115 13.5101C3.28015 13.0381 2.57915 12.6281 2.35515 11.9151C2.25615 11.5501 1.56315 10.5031 1.98915 11.4781C2.35215 12.4171 2.99015 13.2201 3.52115 14.0231C3.93315 14.7871 4.42115 15.5861 5.17215 16.0631C5.42515 16.3061 5.66915 16.6781 6.02715 16.7541ZM9.76715 18.3331C10.1152 18.5521 11.7972 18.8141 10.7442 18.4231C10.5672 18.4601 8.79015 17.9201 9.76715 18.3331ZM5.92415 15.2131C6.33215 15.5261 7.56915 15.2531 6.54915 15.0261C6.08415 14.7781 5.03815 14.6091 5.75115 15.1751L5.92415 15.2131ZM7.89915 16.2591C8.89715 16.5411 7.06015 15.6281 7.65315 16.1551L7.78415 16.2141L7.89915 16.2591ZM9.62715 17.2581C10.5722 17.2671 8.77415 17.1281 9.62715 17.2581ZM7.90715 15.7311C8.63215 15.8241 7.04515 15.2381 7.74815 15.6791L7.90715 15.7311ZM10.4262 17.2791C11.1032 16.8741 10.8802 18.2261 11.5742 17.3931C12.2592 16.8931 10.9822 18.0111 11.8272 17.4821C12.4382 17.0741 13.3392 17.6761 13.9092 17.8721C14.3192 17.8521 14.7172 18.2261 15.1372 17.9981C15.9452 17.7801 13.5562 17.6751 14.1822 17.2891C13.4422 17.5041 12.8962 17.0321 12.5322 16.5581C11.7022 16.3661 10.7432 15.9421 10.3292 15.2081C10.1602 14.9321 10.5732 15.2471 10.1832 14.7961C9.68315 14.3511 9.43315 13.8461 9.09815 13.3061C8.69715 13.0921 8.65015 12.4621 8.61015 13.2851C8.61315 12.7661 8.12615 12.4171 8.00715 12.5621C8.00515 12.0621 8.52915 12.3131 8.16215 11.9431C8.08315 11.4251 7.82315 10.8851 7.74515 10.3001C7.62415 10.0181 7.72815 9.41412 7.33115 10.0521C7.18615 10.7271 7.28315 9.22312 7.50815 9.71912C7.80315 9.21312 7.40215 9.27312 7.38615 9.34312C7.57815 8.91612 7.50815 8.31112 7.33615 8.54212C7.43815 8.09012 7.49815 6.87712 7.18315 7.09212C7.37415 6.61912 7.54515 4.92712 6.71615 5.57212C6.38015 5.57712 5.79815 5.69412 5.52215 5.83112C6.38515 6.30712 5.43515 6.00312 5.08415 5.92712C5.03815 6.36712 4.69015 6.17712 4.25615 6.18112C4.95015 6.26712 3.91815 6.89112 3.52015 6.64912C3.00015 6.89612 3.96415 7.51312 3.52815 7.70412C3.58215 7.99212 2.73615 7.60012 2.80215 8.26412C2.30015 8.05312 2.73315 9.05212 2.98415 8.71412C3.83815 8.94512 3.58515 9.47212 3.60715 9.97312C3.46815 10.2651 2.92015 9.28712 3.48515 9.33312C3.03915 8.60912 2.99215 9.07112 2.62215 9.40812C2.53615 9.43212 3.56715 9.88712 2.92015 10.1111C3.48915 10.1991 3.50515 10.6971 3.62115 11.0121C3.96315 11.3681 3.89315 10.6191 4.30215 11.0471C4.04315 10.6651 2.93015 9.97212 3.82615 10.1941C3.82115 9.81012 3.66415 9.50012 3.93815 9.50812C4.21015 9.01612 3.65315 10.7221 4.26615 10.0961C4.43615 10.0221 4.47815 9.60312 4.78315 10.1361C5.22615 10.5721 4.94315 10.8871 4.31815 10.4881C4.43015 10.8671 5.15415 11.0031 5.01815 11.5961C5.16215 12.1181 5.36415 11.9251 5.54015 11.8951C5.67815 12.4021 5.75615 12.0291 5.76315 11.7881C6.39515 11.9231 6.24715 12.2971 6.44515 12.5581C6.88015 12.7551 5.82215 11.2261 6.56915 12.0981C7.35515 12.8081 6.86415 13.1041 6.15815 12.9911C6.60515 12.9551 6.74915 13.5951 7.30715 13.5721C7.81615 13.8141 8.16115 14.7451 7.28315 14.3581C6.97815 14.0831 5.90115 13.7451 6.78115 14.2671C7.59415 14.6441 8.24015 14.8691 9.02415 15.3411C9.58515 15.7421 9.82815 16.2011 10.0402 16.2911C9.56815 16.5161 8.61815 16.1111 9.32415 15.9871C8.88415 15.9071 8.38915 15.6841 8.81115 16.2331C9.16915 16.5321 10.0802 16.5001 10.2442 16.5341C10.1062 16.8391 9.86815 16.8631 10.2502 16.8871C9.82415 17.1151 10.3872 17.1501 10.4262 17.2791ZM9.55515 14.8201C9.29615 14.5491 9.22915 14.0421 9.50915 14.4831C9.65315 14.5411 9.96915 15.3131 9.55515 14.8201ZM7.89515 12.0851C7.58615 11.3931 8.11415 11.7071 7.96315 12.1981L7.89515 12.0851ZM5.05215 10.1901C4.91415 9.96312 4.68615 9.29712 4.75915 9.09412C4.82615 9.42512 5.46315 10.5191 5.07215 9.54712C4.64015 8.73212 5.58915 9.81112 5.68715 10.0151C5.73215 10.2171 5.42015 9.96012 5.63215 10.4341C5.24615 9.89412 5.40415 10.7311 5.05215 10.1901ZM3.61815 8.98512C3.29115 8.66012 3.05415 8.36012 3.63315 8.78312C3.85615 8.79212 3.13715 8.10212 3.68715 8.56412C4.26515 8.67012 3.97315 9.51212 3.61815 8.98512ZM3.81415 8.48712C2.86315 7.64112 5.00915 8.92912 3.96915 8.64412L3.81415 8.48712ZM6.53815 10.0701C6.12715 9.82312 6.42915 8.33312 6.56915 9.35212C6.96915 9.22312 6.54715 9.87812 6.84515 9.87212C6.79915 10.2861 6.66515 10.4351 6.53815 10.0701ZM4.00115 8.20912C3.39015 7.36612 5.77615 9.06112 4.39215 8.42312C4.24715 8.38512 4.07315 8.37212 4.00115 8.20912ZM5.94115 9.23812C6.07015 9.35512 5.88315 8.52812 5.94115 9.23812ZM4.09415 7.88812C4.45715 7.81012 5.59815 8.52612 4.55015 8.09212C4.43415 7.96312 4.18615 8.02112 4.09415 7.88812ZM7.21215 9.44112C7.25115 8.71512 7.42915 9.00812 7.21315 9.54512L7.21215 9.44112ZM4.36515 7.63512C4.51315 7.41812 3.97215 6.65412 4.44315 7.36112C4.64615 7.52312 5.03215 7.63212 4.69115 7.70012C5.22615 8.17212 4.56015 7.82812 4.36515 7.63512ZM6.45615 7.69312C6.61315 8.04512 6.41015 7.41312 6.45615 7.69312ZM6.73115 7.24612C6.54215 6.91312 6.96915 5.78012 7.01715 6.48312C6.81815 7.03012 6.96015 7.33712 7.09815 6.60212C7.35515 6.02512 7.04315 7.74312 6.73115 7.24612ZM7.51315 15.3461C8.05315 15.4851 8.05115 15.2621 7.56215 15.1961C7.29915 14.9521 6.47015 14.6921 7.21215 15.1661C7.26215 15.2901 7.41715 15.2871 7.51315 15.3461ZM5.59415 14.0721C5.89215 14.2941 6.71515 14.7011 6.01815 14.1571C6.25315 13.8841 5.56815 13.7381 5.79515 13.5561C5.21715 13.2021 5.33915 13.2341 5.74415 13.2451C5.04915 12.9341 5.84415 12.9581 5.80715 12.7991C5.53915 12.7461 4.47615 12.3271 5.10215 12.8331C4.46615 12.5091 4.95115 12.9541 4.75815 12.9071C4.10815 12.7301 5.33715 13.4021 4.65515 13.2351C5.02815 13.5301 5.65915 13.9921 4.81315 13.5481C4.70115 13.7071 5.41815 13.9501 5.59415 14.0721ZM12.3472 18.0311C12.6322 17.7551 12.3592 18.4711 12.8192 17.9631C12.8242 17.6001 12.8052 17.3851 12.2902 17.8261C12.1482 17.9061 12.0842 18.2411 12.3472 18.0311ZM7.67915 15.0341C7.99615 15.3161 9.13515 15.2411 8.06415 15.0691C7.90515 14.8351 7.05615 14.8911 7.67915 15.0341ZM13.1602 18.3051C13.7002 17.7331 12.6362 18.3391 13.1602 18.3051ZM2.45615 11.5261C1.99515 10.8691 2.17015 10.5731 1.72515 10.0371C1.64115 9.62712 0.96315 8.69512 1.37415 9.68212C1.75115 10.2591 1.86315 11.1521 2.45615 11.5261ZM13.5912 18.2181C14.0732 17.9071 13.4802 17.9551 13.5042 18.2471L13.5912 18.2181ZM14.3642 18.4281C14.9822 17.9821 13.9902 18.3431 14.2342 18.5121L14.3642 18.4281ZM4.00115 11.8221C4.45415 11.9231 5.81115 12.9371 5.01015 11.8921C4.60015 11.7711 4.84615 10.7691 4.42815 10.9461C4.70915 11.4151 4.65915 11.6141 4.07015 11.3191C3.32915 10.9571 3.65415 11.4981 3.79915 11.6471C3.60015 11.6921 4.05915 11.8191 4.00115 11.8221ZM1.93815 10.1931C2.01915 9.85812 1.19215 8.34812 1.54715 9.43712C1.67515 9.66512 1.66215 10.0971 1.93815 10.1931ZM11.2742 15.7981C11.1792 15.5551 10.8992 15.7921 11.2742 15.7981ZM16.1032 18.0121C16.5512 17.9211 17.5722 18.2401 17.7372 17.8931C17.1932 17.8801 15.8542 17.5091 15.7912 17.9811L15.9102 18.0001L16.1032 18.0121ZM2.14415 8.26712C2.59615 8.08912 1.32115 7.90012 2.05215 8.23312L2.14415 8.26712ZM0.73315 6.68812C0.65115 6.22012 0.66215 5.39812 1.44415 5.67612C0.40115 5.88312 2.16615 6.97212 1.94315 6.11212C2.38115 6.13312 2.80115 5.85312 2.57115 6.27912C3.43515 6.18412 4.03415 5.43412 4.86815 5.53912C5.51815 5.45312 6.22915 5.38812 6.92915 5.12612C7.50515 5.08512 8.05915 4.46412 7.74415 4.09712C6.95915 4.03112 6.13615 4.12912 5.26815 4.30112C4.30615 4.50112 3.43215 4.88112 2.46215 5.04412C1.51615 5.17112 2.65215 5.39412 2.38115 5.44412C1.88715 5.61512 2.97015 5.73112 2.31715 5.91112C1.91415 5.83412 1.49415 5.69612 1.66615 5.27112C0.76015 5.38912 -0.0368496 5.76512 0.67915 6.68712L0.73315 6.68812ZM2.91715 5.57612C3.12915 4.79312 4.05515 6.22012 3.26515 5.68012C3.17115 5.60912 3.01515 5.55212 2.91715 5.57612ZM3.34715 5.20312C3.37515 4.84312 4.23815 5.39412 3.48915 5.33312L3.34715 5.20312ZM4.01615 4.89712C4.34015 4.50812 5.85015 4.64912 4.74515 4.85912C4.44915 4.63612 4.22215 4.99112 4.01615 4.89712ZM6.54715 4.59012C6.75115 4.05412 7.34115 4.37512 6.64215 4.48212C6.65715 4.54012 6.62115 4.75912 6.54715 4.59012ZM2.03315 7.43212C2.64415 7.05812 1.38415 7.10712 2.03315 7.43212ZM19.6982 18.0191C20.1862 18.0211 21.1772 17.8671 20.1152 17.8681C19.9482 17.8941 19.1442 17.8891 19.6982 18.0191ZM2.88215 7.33812C3.27715 7.31112 3.50015 6.90212 2.80615 6.92612C1.73015 6.81512 3.75615 7.29512 2.66815 7.15712C2.52115 7.25412 2.87315 7.36412 2.88215 7.33812ZM2.32915 4.21712C3.03415 3.97712 3.99815 3.70812 4.33115 4.33512C3.99215 3.92712 4.19415 3.52612 4.51415 4.12212C4.96615 4.72512 5.19315 3.84812 4.89915 3.64512C5.23415 4.06212 5.61615 4.25912 5.12415 3.67112C5.65915 3.02812 4.05315 3.75512 3.68815 3.74812C3.51115 3.82812 1.87415 4.16712 2.32915 4.21712ZM2.74215 3.42612C3.14415 3.12312 4.13315 3.60712 3.49815 3.12412C3.43615 3.07012 2.10915 3.49012 2.74215 3.42612ZM4.20815 3.48712C4.67915 3.49912 4.00515 2.85512 4.56615 3.14712C4.47415 2.84612 3.91315 2.79012 3.63915 2.67012C3.48315 2.94412 3.95415 3.49012 4.20815 3.48712ZM3.59815 2.29912C4.35615 2.19812 3.40515 1.97212 3.44515 2.29112L3.59815 2.29912ZM2.47915 1.42412C1.94515 0.727121 3.48315 1.54112 2.94115 0.811121C2.48415 0.448121 2.04615 1.22112 2.47915 1.42412ZM9.33215 5.11512C9.57715 4.68112 8.32115 4.53012 9.16715 4.96112C9.24415 4.98712 9.22715 5.14512 9.33215 5.11512Z" fill="black"/>
</svg>
