<svg width="13" height="13" viewBox="0 0 13 13" fill="none" xmlns="http://www.w3.org/2000/svg">
<g clip-path="url(#clip0_7_1208)">
<path d="M6.46666 -0.0333252C2.87703 -0.0333252 -0.0333405 2.92262 -0.0333405 6.56845C-0.0333405 9.66194 2.06399 12.2504 4.89149 12.9667C4.86116 12.8776 4.84166 12.7741 4.84166 12.6459V11.5176C4.57787 11.5176 4.13587 11.5176 4.02483 11.5176C3.58012 11.5176 3.1847 11.3234 2.99295 10.9625C2.78008 10.5614 2.74324 9.94801 2.21566 9.57281C2.05912 9.44793 2.17828 9.30544 2.35866 9.32469C2.69178 9.42042 2.96803 9.65258 3.22803 9.99698C3.48695 10.3419 3.60883 10.42 4.09253 10.42C4.32708 10.42 4.67808 10.4063 5.00849 10.3535C5.18616 9.8952 5.49328 9.47323 5.86866 9.27408C3.70416 9.04797 2.6712 7.95428 2.6712 6.46943C2.6712 5.83015 2.93933 5.21179 3.39487 4.6908C3.24537 4.17366 3.05741 3.11902 3.45228 2.71742C4.4262 2.71742 5.01499 3.35889 5.15637 3.53218C5.6417 3.36329 6.1747 3.26756 6.73478 3.26756C7.29595 3.26756 7.83112 3.36329 8.31753 3.53328C8.45728 3.36109 9.04662 2.71742 10.0227 2.71742C10.4192 3.11957 10.2291 4.17861 10.078 4.69465C10.5308 5.21454 10.7973 5.83125 10.7973 6.46943C10.7973 7.95318 9.76595 9.04632 7.6047 9.27353C8.19945 9.58877 8.63333 10.4745 8.63333 11.1418V12.6459C8.63333 12.7032 8.62087 12.7444 8.61437 12.7934C11.1472 11.8917 12.9667 9.44903 12.9667 6.56845C12.9667 2.92262 10.0563 -0.0333252 6.46666 -0.0333252Z" fill="white"/>
</g>
<defs>
<clipPath id="clip0_7_1208">
<rect width="13" height="13" fill="white"/>
</clipPath>
</defs>
</svg>
