<svg width="49" height="18" viewBox="0 0 49 18" fill="none" xmlns="http://www.w3.org/2000/svg">
<path d="M27.5272 1.25106L27.633 1.32168C28.8763 2.14269 29.7677 3.26865 30.3541 4.62919C30.4948 4.84031 30.401 4.9576 30.1195 5.02797L29.643 5.14986C28.5659 5.42736 27.7111 5.66071 26.6482 5.93821L26.0419 6.09618C25.8236 6.15019 25.7633 6.12748 25.5311 5.86309L25.4984 5.82553C25.1672 5.45021 24.9192 5.19956 24.4804 4.9758L24.3959 4.93414C22.918 4.20696 21.4871 4.41807 20.15 5.286C18.5549 6.31814 17.7339 7.84288 17.7574 9.74294C17.7808 11.6195 19.071 13.1677 20.9241 13.4258C22.5193 13.6369 23.8563 13.0739 24.9119 11.8776C25.1231 11.6195 25.3107 11.3381 25.5453 11.0096H21.018C20.5254 11.0096 20.4081 10.7047 20.5723 10.3059L20.6536 10.1145C20.9551 9.41307 21.4227 8.40484 21.7264 7.82838L21.7926 7.70434C21.8737 7.56373 22.0384 7.37373 22.3551 7.37373L29.9041 7.37367C30.2431 6.29955 30.7932 5.2846 31.527 4.32424C33.2394 2.07232 35.3036 0.899439 38.0951 0.406831C40.4878 -0.0154054 42.7397 0.21917 44.7805 1.60317C46.6336 2.86987 47.7831 4.58228 48.088 6.8342C48.4868 10.001 47.5719 12.5813 45.3904 14.7863C43.8422 16.358 41.9421 17.3432 39.7606 17.7889C39.1272 17.9062 38.4939 17.9296 37.884 18C35.7493 17.9531 33.8024 17.3432 32.1603 15.9357C31.0054 14.9374 30.2099 13.7105 29.8146 12.2821C29.5403 12.8361 29.2123 13.3667 28.8293 13.8715C27.1404 16.0999 24.9354 17.4839 22.1439 17.8593C19.8451 18.1642 17.7105 17.7185 15.8339 16.3111C14.098 14.9974 13.1128 13.2616 12.8547 11.1035C12.5498 8.5466 13.3004 6.24776 14.8486 4.23041C16.5141 2.04886 18.7191 0.664864 21.4168 0.172255C23.5809 -0.219139 25.6547 0.0221782 27.5272 1.25106ZM38.6862 4.61249L38.6112 4.62919C36.4296 5.1218 35.0221 6.5058 34.5061 8.71081C34.0838 10.5405 34.9752 12.3936 36.6642 13.1443C37.9543 13.7073 39.2445 13.6369 40.4878 13.0035C42.3409 12.0418 43.3496 10.5405 43.4669 8.52315C43.4434 8.2182 43.4434 7.98362 43.3965 7.74905C42.979 5.45284 40.8874 4.14277 38.6862 4.61249ZM10.9547 8.89847C11.0485 8.89847 11.0954 8.96884 11.0954 9.06267L11.0485 9.62565C11.0485 9.71948 10.9547 9.78985 10.8843 9.78985L5.77056 9.7664C5.67673 9.7664 5.65327 9.69602 5.70019 9.62565L6.02859 9.03921C6.07551 8.96884 6.16934 8.89847 6.26317 8.89847H10.9547ZM11.4707 6.74037C11.5646 6.74037 11.6115 6.81074 11.588 6.88112L11.4004 7.4441C11.3769 7.53793 11.2831 7.58484 11.1893 7.58484L0.0938303 7.6083C0 7.6083 -0.0234576 7.56139 0.0234576 7.49101L0.516066 6.85766C0.562982 6.78729 0.680269 6.74037 0.7741 6.74037H11.4707ZM12.6905 4.58228C12.7844 4.58228 12.8078 4.65265 12.7609 4.72302L12.3621 5.33292C12.3152 5.40329 12.1979 5.47366 12.1276 5.47366L3.63592 5.45021C3.54209 5.45021 3.51863 5.40329 3.56555 5.33292L4.05816 4.69956C4.10507 4.62919 4.22236 4.58228 4.31619 4.58228H12.6905Z" fill="#00ACD7"/>
</svg>
