<svg width="27" height="28" viewBox="0 0 27 28" fill="none" xmlns="http://www.w3.org/2000/svg">
<path d="M23.0625 3.3125H3.9375L5.625 22.4375L13.5 24.6875L21.375 22.4375L23.0625 3.3125Z" fill="#E65100"/>
<path d="M13.5 5V22.9438L19.8 21.1438L21.2063 5H13.5Z" fill="#FF6D00"/>
<path d="M13.5 14.5625V12.3125H18.3375L17.9437 18.7812L13.5 20.2437V17.8812L15.8063 17.0938L15.975 14.5625H13.5ZM18.5063 10.0625L18.675 7.8125H13.5V10.0625H18.5063Z" fill="white"/>
<path d="M13.5 17.8812V20.2437L9.05625 18.7812L8.83125 15.6875H11.0812L11.1937 17.0938L13.5 17.8812ZM10.7437 10.0625H13.5V7.8125H8.38125L8.775 14.5625H13.5V12.3125H10.9125L10.7437 10.0625Z" fill="#EEEEEE"/>
</svg>
