<svg width="27" height="28" viewBox="0 0 27 28" fill="none" xmlns="http://www.w3.org/2000/svg">
<path d="M3.375 24.125V3.875H23.625V24.125H3.375Z" fill="#F0DF47"/>
<path d="M16.6151 19.0327C17.0044 19.6649 17.4274 20.2707 18.3234 20.2707C19.0761 20.2707 19.4709 19.8967 19.4709 19.3792C19.4709 18.7599 19.0626 18.5399 18.2346 18.1794L17.7806 17.9859C16.4706 17.4301 15.5993 16.7337 15.5993 15.2628C15.5993 13.9072 16.6371 12.8755 18.2587 12.8755C19.4136 12.8755 20.2432 13.2755 20.8417 14.3229L19.4276 15.2268C19.1166 14.671 18.7802 14.4522 18.2587 14.4522C17.7266 14.4522 17.3897 14.788 17.3897 15.2268C17.3897 15.769 17.7272 15.9884 18.5063 16.3242L18.9602 16.5177C20.5043 17.1753 21.375 17.8469 21.375 19.3567C21.375 20.9834 20.0903 21.875 18.3656 21.875C16.6787 21.875 15.7208 21.0284 15.1875 19.9805L16.6151 19.0327Z" fill="#000001"/>
<path d="M10.098 19.0788C10.3826 19.5884 10.8152 19.9805 11.4373 19.9805C12.0324 19.9805 12.375 19.7454 12.375 18.8313V12.875H14.2498V19.1193C14.2498 21.0133 13.1513 21.875 11.547 21.875C10.0974 21.875 9.05119 20.8929 8.62482 19.9805L10.098 19.0788Z" fill="#000001"/>
</svg>
