<svg width="23" height="22" viewBox="0 0 23 22" fill="none" xmlns="http://www.w3.org/2000/svg">
<path d="M16.9883 16.8094H14.5436V12.98C14.5436 12.067 14.5271 10.8914 13.2717 10.8914C11.9985 10.8914 11.8032 11.8869 11.8032 12.9126V16.8094H9.35846V8.93477H11.7056V10.0114H11.7386C12.2171 9.19465 13.1081 8.70515 14.0541 8.73952C16.5318 8.73952 16.9897 10.3689 16.9897 12.4905L16.9883 16.808V16.8094ZM6.60021 7.85815C6.22466 7.85634 5.86498 7.70645 5.5993 7.44102C5.33361 7.17559 5.18337 6.81607 5.18121 6.44052C5.18121 5.66227 5.82196 5.02152 6.60021 5.02152C7.37846 5.02152 8.01783 5.66227 8.01921 6.44052C8.01921 7.21877 7.37846 7.85815 6.60021 7.85815ZM7.82258 16.8094H5.37508V8.93477H7.82258V16.8094ZM18.2052 2.75002H4.14583C3.82704 2.74817 3.52039 2.8722 3.29254 3.09517C3.06468 3.31813 2.93402 3.62201 2.92896 3.94077V18.0593C2.93402 18.378 3.06468 18.6819 3.29254 18.9049C3.52039 19.1278 3.82704 19.2519 4.14583 19.25H18.2066C18.5261 19.2526 18.8337 19.129 19.0626 18.906C19.2915 18.6831 19.4232 18.3788 19.429 18.0593V3.9394C19.4232 3.62016 19.2914 3.31615 19.0625 3.09362C18.8335 2.87109 18.5259 2.74808 18.2066 2.7514L18.2052 2.75002Z" fill="#0A66C2"/>
</svg>
