<svg width="62" height="19" viewBox="0 0 62 19" fill="none" xmlns="http://www.w3.org/2000/svg">
<path d="M11.2764 13.1301L4.63416 14.9837L7.87806 18.0732L18.3821 18.8455L23.0163 17.1463L19.9268 13.9024L11.2764 13.1301Z" fill="white"/>
<path d="M51.5935 13.2845L58.2358 15.1382L54.9919 18.2276L44.4878 19L39.8537 17.3008L42.9431 14.0569L51.5935 13.2845Z" fill="white"/>
<path d="M49.0457 3.07385H36.7642L37.6247 6.81233H44.3333H52.0183L61.1707 9.88618L59.9191 7.6431L55.6949 4.32001L52.0183 0L49.0457 3.07385Z" fill="white"/>
<path d="M12.125 3.07385H24.4065L23.546 6.81232H16.8374H9.15242L-1.71661e-05 9.88618L1.2516 7.6431L5.4758 4.32001L8.49592 3.07385H12.125Z" fill="white"/>
</svg>
