<svg width="65" height="21" viewBox="0 0 65 21" fill="none" xmlns="http://www.w3.org/2000/svg">
<path d="M13.2764 14.1301L6.63416 15.9837L9.87806 19.0732L20.3821 19.8455L25.0163 18.1463L21.9268 14.9024L13.2764 14.1301Z" fill="black" stroke="black"/>
<path d="M53.5936 14.2845L60.2358 16.1382L56.9919 19.2276L46.4879 20L41.8537 18.3008L44.9432 15.0569L53.5936 14.2845Z" fill="black" stroke="black"/>
<path d="M51.0458 4.07385H38.7643L39.6248 7.81233H46.3334H54.0184L63.1708 10.8862L61.9192 8.6431L57.695 5.32001L54.0184 1L51.0458 4.07385Z" fill="black" stroke="black"/>
<path d="M14.125 4.07385H26.4065L25.546 7.81232H18.8374H11.1524L1.99998 10.8862L3.2516 8.6431L7.4758 5.32001L10.4959 4.07385H14.125Z" fill="black" stroke="black"/>
</svg>
