<svg width="23" height="22" viewBox="0 0 23 22" fill="none" xmlns="http://www.w3.org/2000/svg">
<g clip-path="url(#clip0_131_15)">
<path d="M22.179 5.16272C22.179 7.95631 17.2534 10.2217 11.179 10.2217C5.10451 10.2217 0.178955 7.95631 0.178955 5.16272C0.178955 2.36914 5.10451 0.10376 11.179 0.10376C17.2534 0.10376 22.179 2.36914 22.179 5.16272Z" fill="black"/>
<path d="M11.179 11.7781C14.4606 11.7781 17.5223 11.1699 19.8298 10.1083C20.6791 9.72553 21.4598 9.24192 22.1484 8.67212C22.168 8.79769 22.179 8.92533 22.179 9.05401C22.179 11.8476 17.2534 14.113 11.179 14.113C5.10451 14.113 0.178955 11.8476 0.178955 9.05401C0.178955 8.92533 0.189955 8.79769 0.209511 8.67212C0.898133 9.2419 1.67882 9.72548 2.52807 10.1083C4.8344 11.1699 7.89729 11.7781 11.179 11.7781Z" fill="black"/>
<path d="M11.179 15.6697C14.4606 15.6697 17.5223 15.0616 19.8298 13.9999C20.6791 13.6171 21.4598 13.1335 22.1484 12.5637C22.168 12.6893 22.179 12.8169 22.179 12.9456C22.179 15.7392 17.2534 18.0046 11.179 18.0046C5.10451 18.0046 0.178955 15.7392 0.178955 12.9456C0.178955 12.8169 0.189955 12.6893 0.209511 12.5637C0.89812 13.1335 1.67881 13.6171 2.52807 13.9999C4.8344 15.0616 7.89729 15.6697 11.179 15.6697Z" fill="black"/>
<path d="M11.179 19.5611C14.4606 19.5611 17.5223 18.953 19.8298 17.8914C20.6791 17.5086 21.4598 17.025 22.1484 16.4552C22.168 16.5808 22.179 16.7084 22.179 16.8371C22.179 19.6307 17.2534 21.896 11.179 21.896C5.10451 21.896 0.178955 19.6307 0.178955 16.8371C0.178955 16.7084 0.189955 16.5808 0.209511 16.4552C0.89812 17.025 1.67881 17.5086 2.52807 17.8914C4.8344 18.953 7.89729 19.5611 11.179 19.5611Z" fill="black"/>
</g>
<defs>
<clipPath id="clip0_131_15">
<rect width="22" height="22" fill="white" transform="translate(0.178955)"/>
</clipPath>
</defs>
</svg>
