<svg width="28" height="28" viewBox="0 0 28 28" fill="none" xmlns="http://www.w3.org/2000/svg">
<path d="M14 4.08331C16.8583 4.08331 19.5417 4.66665 21.2917 5.13331C21.9917 5.30831 22.4583 5.89165 22.575 6.64998C22.6917 7.75831 22.75 8.92498 22.75 10.0916C22.75 19.1916 16.0417 22.8666 14 23.7416C11.9583 22.8083 5.25 19.1333 5.25 10.0916C5.25 8.92498 5.30833 7.75831 5.425 6.64998C5.48333 5.89165 6.00833 5.30831 6.70833 5.13331C8.45833 4.66665 11.1417 4.08331 14 4.08331ZM14 2.33331C10.9667 2.33331 8.10833 2.91665 6.24167 3.44165C4.9 3.79165 3.85 5.01665 3.73333 6.41665C3.61667 7.40831 3.5 8.69165 3.5 10.0916C3.5 22.05 14 25.6666 14 25.6666C14 25.6666 24.5 22.05 24.5 10.0916C24.5 8.63331 24.3833 7.40831 24.2667 6.41665C24.0917 4.95831 23.1 3.79165 21.7 3.44165C19.8917 2.91665 17.0333 2.33331 14 2.33331Z" fill="#4CAF50"/>
<path d="M14.5833 16.3333H13.4167V21H14.5833V16.3333Z" fill="#DCEDC8"/>
<path d="M14 5.83331C14 5.83331 10.5 8.74998 10.5 13.4166C10.5 16.45 12.425 18.375 13.4167 19.25L14 17.5L14.5833 19.25C15.575 18.375 17.5 16.45 17.5 13.4166C17.5 8.74998 14 5.83331 14 5.83331Z" fill="#4CAF50"/>
<path d="M14 5.83331C14 5.83331 10.5 8.74998 10.5 13.4166C10.5 16.45 12.425 18.375 13.4167 19.25L14 17.5V5.83331Z" fill="#81C784"/>
</svg>
