<svg width="23" height="22" viewBox="0 0 23 22" fill="none" xmlns="http://www.w3.org/2000/svg">
<g clip-path="url(#clip0_131_29)">
<path d="M0.179872 16.0605H1.05987V12.8132L2.28225 15.5893C2.43304 15.9354 2.63929 16.0577 3.044 16.0577C3.4487 16.0577 3.6467 15.9354 3.7975 15.5893L5.01987 12.8842V16.0605H5.89987V12.7339C5.89987 12.4144 5.77291 12.2595 5.51075 12.1798C4.88421 11.9827 4.46345 12.1527 4.27325 12.5794L3.0197 15.4028L1.80558 12.5794C1.62316 12.1532 1.19508 11.9827 0.56808 12.1798C0.305913 12.2595 0.178955 12.414 0.178955 12.7334V16.06L0.179872 16.0605Z" fill="#00796B"/>
<path d="M6.33942 13.4205H7.21942V15.279C7.21254 15.3707 7.24875 15.6141 7.67317 15.6205C7.8895 15.6241 8.96612 15.6205 8.97942 15.6205V13.4205H9.85942C9.86308 13.4205 9.85942 16.1558 9.85942 16.1673C9.864 16.8419 9.02158 16.929 8.63429 16.9405H6.33988V16.5005C6.34446 16.5005 8.53392 16.5009 8.54033 16.5005C9.039 16.4478 8.97987 16.1732 8.97987 16.0898V16.0605H7.59938C6.83396 16.0536 6.34583 15.7163 6.34033 15.3317C6.33942 15.296 6.35683 13.437 6.33942 13.4205Z" fill="#00796B"/>
<path d="M10.2994 16.0605H12.5026C12.7914 16.0605 13.0719 16 13.2946 15.8955C13.6659 15.725 13.819 15.4944 13.819 15.1915V14.5645C13.819 13.888 12.9802 13.8605 12.499 13.8605H11.619C11.2729 13.8605 11.2202 13.6515 11.179 13.4205V12.9805C11.2202 12.8045 11.2972 12.568 11.602 12.5405C11.9563 12.5405 13.8185 12.5405 13.8185 12.5405V12.1005H11.7257C11.3797 12.1005 10.2985 12.1417 10.2985 12.9805V13.5245C10.2985 13.9095 10.6367 14.223 11.371 14.3C11.4535 14.3055 11.536 14.311 11.618 14.311C11.618 14.311 12.4733 14.2945 12.498 14.3C12.993 14.3 12.938 14.685 12.938 14.74V15.18C12.938 15.2405 12.9243 15.62 12.493 15.62C12.46 15.62 10.298 15.62 10.298 15.62V16.0605H10.2994Z" fill="#F57F17"/>
<path d="M18.6589 15.1616C18.6589 15.6929 18.9591 15.9908 19.7553 16.0504C19.8295 16.0554 19.9042 16.06 19.9789 16.06H22.1789V15.62H20.1462C19.692 15.62 19.5389 15.4293 19.5389 15.1566V12.1H18.6589V15.1616Z" fill="#F57F17"/>
<path d="M14.2516 15.1805V12.9805C14.2516 12.513 14.4808 12.1903 15.1298 12.1005H15.4378H17.0177H17.2583C17.9073 12.1903 18.2116 12.5125 18.2116 12.9805V15.1722C18.2116 15.5513 18.1131 15.7548 17.7918 15.8868L18.4738 16.5H17.4838L16.9934 16.06H16.4173L15.4383 16.0655C15.2966 16.0655 15.1472 16.0458 14.9831 16.0009C14.4909 15.8666 14.2516 15.6081 14.2516 15.1805ZM15.1316 15.1805C15.1766 15.3945 15.3484 15.6205 15.6541 15.6205H16.5085L16.019 15.1805H17.0159L17.2537 15.4014C17.2537 15.4014 17.339 15.3317 17.339 15.1805C17.339 15.0292 17.3316 12.9805 17.3316 12.9805C17.2867 12.7815 17.0851 12.5405 16.7871 12.5405H15.6546C15.3113 12.5405 15.1321 12.7916 15.1321 13.0254L15.1316 15.1805Z" fill="#F57F17"/>
<path d="M21.3535 11.6367C20.881 11.6238 20.5203 11.6678 20.2118 11.7975C20.1243 11.8347 19.9845 11.8356 19.9698 11.9456C20.0179 11.996 20.0253 12.0716 20.0638 12.1335C20.1371 12.2527 20.2618 12.4126 20.3727 12.496C20.4941 12.5877 20.6193 12.6858 20.749 12.7651C20.98 12.9058 21.238 12.9864 21.4608 13.1276C21.5918 13.2106 21.722 13.316 21.8503 13.4095C21.9136 13.4562 21.9558 13.5282 22.0383 13.5575C22.0383 13.5529 22.0383 13.5488 22.0383 13.5442C21.9952 13.4892 21.9837 13.4136 21.9443 13.3559C21.8861 13.2977 21.8279 13.2394 21.7697 13.1812C21.5992 12.9548 21.3819 12.7554 21.1518 12.5904C20.9681 12.4584 20.5569 12.2802 20.4799 12.0666C20.4753 12.062 20.4712 12.0579 20.4662 12.0528C20.5963 12.0382 20.749 11.9909 20.8691 11.9589C21.0712 11.9048 21.2513 11.919 21.4598 11.8649C21.5538 11.8379 21.6478 11.8113 21.7417 11.7842C21.7417 11.7664 21.7417 11.7485 21.7417 11.7306C21.6363 11.6224 21.5607 11.4794 21.4461 11.3814C21.145 11.1252 20.8168 10.8694 20.479 10.6558C20.2916 10.5376 20.0596 10.4606 19.8612 10.3602C19.7943 10.3263 19.6769 10.3089 19.6329 10.2529C19.5284 10.12 19.4721 9.9509 19.3914 9.79644C19.2227 9.47194 19.0568 9.11719 18.9078 8.77573C18.8056 8.5429 18.7392 8.31282 18.6122 8.10382C18.0022 7.10098 17.3454 6.49553 16.3288 5.90061C16.1125 5.77411 15.8517 5.72415 15.5762 5.65861C15.4282 5.6499 15.2806 5.64073 15.1326 5.63157C15.0423 5.59353 14.9488 5.48353 14.8635 5.4299C14.5266 5.21678 13.6622 4.75386 13.4129 5.36253C13.2552 5.74661 13.6485 6.12153 13.7892 6.31632C13.8877 6.4529 14.0142 6.60598 14.0848 6.75998C14.1311 6.86082 14.1393 6.96211 14.1788 7.0689C14.2764 7.33198 14.4308 7.63173 14.5573 7.87511C14.6211 7.9984 14.6916 8.12765 14.7723 8.23765C14.8218 8.30503 14.9066 8.33482 14.9203 8.43932C14.8374 8.55528 14.8328 8.7354 14.7861 8.88298C14.5761 9.54528 14.6554 10.368 14.9607 10.8575C15.0542 11.0078 15.2751 11.3305 15.5785 11.2067C15.8439 11.0986 15.7848 10.7635 15.8604 10.4679C15.8773 10.401 15.8668 10.3519 15.9007 10.307C15.9007 10.3116 15.9007 10.3157 15.9007 10.3208C15.9814 10.4817 16.0616 10.6434 16.1427 10.8043C16.3219 11.0926 16.6396 11.3937 16.9081 11.5972C17.0475 11.7027 17.1575 11.8851 17.3381 11.9465C17.3381 11.9419 17.3381 11.9378 17.3381 11.9327C17.3335 11.9327 17.3293 11.9327 17.3243 11.9327C17.2895 11.8782 17.2345 11.8557 17.19 11.8117C17.0851 11.7086 16.9677 11.5807 16.8811 11.4625C16.6363 11.1302 16.42 10.7663 16.2229 10.3877C16.129 10.2067 16.0469 10.0077 15.9676 9.82348C15.9369 9.75244 15.9374 9.64519 15.8737 9.60853C15.7866 9.74328 15.6592 9.85236 15.5918 10.0114C15.4846 10.2658 15.4703 10.5765 15.4309 10.8978C15.4071 10.9061 15.4176 10.9006 15.4039 10.9111C15.2169 10.8657 15.1509 10.6737 15.0812 10.5082C14.9052 10.0902 14.8727 9.4174 15.0276 8.93661C15.0675 8.81194 15.2485 8.42007 15.1756 8.30503C15.1408 8.18998 15.0253 8.12353 14.9611 8.03598C14.8809 7.92782 14.8016 7.78482 14.7462 7.65969C14.6023 7.33382 14.4657 6.95478 14.314 6.62523C14.2416 6.46757 14.1192 6.30853 14.0183 6.16873C13.907 6.01382 13.7818 5.89969 13.6957 5.71223C13.665 5.64578 13.6233 5.53898 13.6686 5.47023C13.6833 5.42394 13.7035 5.40469 13.7493 5.38957C13.8272 5.32907 14.044 5.40928 14.1256 5.44319C14.341 5.53257 14.5207 5.61782 14.7031 5.73882C14.7906 5.79703 14.8791 5.90932 14.985 5.94048C15.0253 5.94048 15.0656 5.94048 15.106 5.94048C15.2953 5.98403 15.507 5.95423 15.6835 6.00786C15.9961 6.10273 16.2756 6.25032 16.5296 6.41073C17.3041 6.89978 17.9371 7.59553 18.3702 8.42603C18.4399 8.55986 18.4701 8.68728 18.5311 8.8289C18.6548 9.1149 18.8111 9.40915 18.934 9.68873C19.0568 9.96786 19.1769 10.2493 19.3506 10.4817C19.4423 10.6036 19.7952 10.6691 19.9551 10.7369C20.0674 10.7846 20.2517 10.8337 20.358 10.8978C20.5615 11.0207 20.7586 11.1669 20.9488 11.3007C21.046 11.3681 21.3388 11.5152 21.3535 11.6367Z" fill="#00796B"/>
<path d="M15.3489 6.51886C15.2503 6.51702 15.1807 6.5294 15.1069 6.5459C15.1069 6.55048 15.1069 6.55461 15.1069 6.55965C15.1115 6.55965 15.1156 6.55965 15.1206 6.55965C15.1678 6.6559 15.2503 6.71869 15.3085 6.80165C15.3535 6.89561 15.3979 6.98957 15.4428 7.08352C15.4474 7.07894 15.4515 7.07482 15.4561 7.07023C15.5391 7.01157 15.5776 6.91807 15.5771 6.77461C15.5437 6.73932 15.5386 6.69532 15.5097 6.65361C15.4712 6.59723 15.397 6.56561 15.3489 6.51886Z" fill="#00796B"/>
</g>
<defs>
<clipPath id="clip0_131_29">
<rect width="22" height="22" fill="white" transform="translate(0.178955)"/>
</clipPath>
</defs>
</svg>
