<svg width="24" height="24" viewBox="0 0 24 24" fill="none" xmlns="http://www.w3.org/2000/svg">
<path d="M8.602 9.56101L6.1485 10.9185C6.0565 10.969 6 11.063 6 11.1645V13.881C6 13.9825 6.0565 14.076 6.1485 14.127L8.6025 15.4855C8.694 15.536 8.8075 15.536 8.899 15.4855L11.3525 14.127C11.4435 14.076 11.5 13.9825 11.5 13.881V11.1645C11.5 11.063 11.4435 10.9695 11.3515 10.9185L8.8985 9.56101C8.8525 9.53551 8.801 9.52301 8.75 9.52301C8.6985 9.52301 8.6475 9.53551 8.6015 9.56101" fill="#388E3C"/>
<path d="M21.2255 12.0065L20.8165 12.2325C20.801 12.241 20.792 12.2565 20.792 12.2735V12.7265C20.792 12.7435 20.8015 12.759 20.8165 12.7675L21.2255 12.994C21.241 13.0025 21.2595 13.0025 21.275 12.994L21.684 12.7675C21.699 12.759 21.7085 12.7435 21.7085 12.7265V12.2735C21.7085 12.2565 21.699 12.241 21.6835 12.2325L21.2745 12.0065C21.267 12.002 21.2585 12 21.25 12C21.2415 12 21.233 12.002 21.2255 12.0065Z" fill="#388E3C"/>
<path d="M17.8755 6.68201L16.681 6.01551C16.6435 5.99451 16.5975 5.99501 16.5605 6.01701C16.5235 6.03901 16.5005 6.07851 16.5005 6.12151L16.5 10.1475L15.3985 9.53801C15.3525 9.51251 15.301 9.50001 15.25 9.50001C15.199 9.50001 15.1475 9.51251 15.1015 9.53801H15.102L12.6485 10.8955C12.5565 10.946 12.5 11.04 12.5 11.141V13.8575C12.5 13.959 12.5565 14.0525 12.6485 14.1035L15.1025 15.462C15.194 15.5125 15.3075 15.5125 15.399 15.462L17.8525 14.1035C17.9435 14.053 18 13.959 18 13.8575V6.89401C18 6.80601 17.952 6.72501 17.8755 6.68201ZM16.433 13.229L15.318 13.8465C15.2765 13.8695 15.225 13.8695 15.1835 13.8465L14.068 13.229C14.0255 13.206 14 13.163 14 13.117V11.882C14 11.836 14.0255 11.7935 14.0675 11.77L15.183 11.153C15.204 11.1415 15.2265 11.136 15.25 11.136C15.2735 11.136 15.2965 11.142 15.3175 11.153L16.4325 11.77C16.4745 11.7935 16.5 11.8365 16.5 11.8825V13.1175C16.5 13.163 16.4745 13.206 16.433 13.229Z" fill="black"/>
<path d="M8.602 9.56101L6 13.881C6 13.9825 6.0565 14.076 6.1485 14.127L8.6025 15.4855C8.694 15.536 8.8075 15.536 8.899 15.4855L11.5 11.1645C11.5 11.063 11.4435 10.9695 11.3515 10.9185L8.8985 9.56101C8.8525 9.53551 8.801 9.52301 8.75 9.52301C8.6985 9.52301 8.6475 9.53551 8.6015 9.56101" fill="#2E7D32"/>
<path d="M8.602 9.56101L6.1485 10.9185C6.0565 10.969 6 11.063 6 11.1645L8.602 15.4855C8.6935 15.536 8.807 15.536 8.8985 15.4855L11.352 14.127C11.4435 14.076 11.5 13.9825 11.5 13.881L8.8985 9.56101C8.8525 9.53551 8.801 9.52301 8.75 9.52301C8.6985 9.52301 8.6475 9.53551 8.6015 9.56101" fill="#4CAF50"/>
<path d="M23.8515 10.8955L21.3985 9.538C21.3525 9.5125 21.301 9.5 21.25 9.5C21.199 9.5 21.1475 9.5125 21.1015 9.538L18.6485 10.8955C18.557 10.946 18.5 11.042 18.5 11.147V13.8525C18.5 13.957 18.557 14.0535 18.6485 14.104L21.1025 15.4625C21.1945 15.5135 21.307 15.5135 21.399 15.4625L22.5305 14.836C22.634 14.7785 22.6335 14.63 22.5295 14.573L20.0675 13.2295C20.026 13.206 20 13.1625 20 13.1155V11.8825C20 11.8365 20.025 11.794 20.065 11.772L21.1825 11.154H21.182C21.203 11.1425 21.226 11.137 21.2495 11.137C21.273 11.137 21.296 11.143 21.317 11.154L22.4345 11.7725C22.4745 11.7945 22.4995 11.837 22.4995 11.883V12.889C22.4995 12.932 22.5225 12.972 22.56 12.9935C22.5975 13.0145 22.6435 13.0145 22.681 12.993L23.88 12.2965C23.954 12.2535 24 12.174 24 12.088V11.148C24 11.0425 23.943 10.946 23.8515 10.8955Z" fill="black"/>
<path d="M5.3515 10.8955L2.8985 9.538C2.8525 9.5125 2.801 9.5 2.75 9.5C2.699 9.5 2.6475 9.5125 2.6015 9.538L0.1485 10.8955C0.057 10.946 0 11.042 0 11.147V14.8795C0 14.9225 0.023 14.9625 0.0605 14.984C0.098 15.005 0.144 15.005 0.1815 14.9835L1.3805 14.287C1.4545 14.244 1.5 14.1645 1.5 14.0785V11.882C1.5 11.836 1.525 11.7935 1.565 11.7715L2.6825 11.1535C2.7035 11.142 2.7265 11.1365 2.75 11.1365C2.7735 11.1365 2.7965 11.1425 2.8175 11.1535L3.935 11.772C3.975 11.794 4 11.8365 4 11.8825V14.079C4 14.165 4.0455 14.2445 4.12 14.2875L5.319 14.984C5.3565 15.0055 5.4025 15.0055 5.44 14.9845C5.477 14.9625 5.5 14.9225 5.5 14.8795V11.1475C5.5 11.0425 5.443 10.946 5.3515 10.8955Z" fill="black"/>
</svg>
