<svg width="28" height="28" viewBox="0 0 28 28" fill="none" xmlns="http://www.w3.org/2000/svg">
<path d="M22.064 5.76803C22.232 6.04803 22.512 6.44003 22.68 7.05603C22.848 7.61603 22.848 8.06403 22.848 8.51203C22.848 9.12803 22.792 9.63203 22.736 10.136C22.68 10.528 22.68 10.696 22.624 10.808C22.624 10.864 22.624 10.92 22.568 11.032C22.568 11.312 22.568 11.424 22.624 11.648C22.624 11.872 22.68 12.096 22.68 12.488C22.736 13.216 22.736 13.72 22.624 14.336V14.56C22.512 15.064 22.4 15.568 22.12 16.016C22.176 16.128 22.232 16.184 22.288 16.296C22.568 15.904 22.792 15.512 23.016 15.064C23.688 13.832 24.08 12.768 24.36 11.984C24.864 10.528 25.144 9.46403 25.312 8.68003C25.704 7.00003 25.76 6.21603 25.592 5.32003C25.592 5.04003 25.48 4.53603 25.2 4.03203C24.584 2.91203 23.632 2.40803 22.96 2.07203C22.512 1.84803 21.336 1.23203 19.712 1.17603C18.872 1.17603 18.144 1.34403 17.472 1.51203C18.648 2.01603 19.376 2.63203 19.768 2.91203C20.664 3.69603 21.168 4.48003 22.064 5.76803Z" fill="#3F6CCD"/>
<path d="M20.104 15.4C19.768 14.784 19.712 14.616 19.656 14.336C19.6 14.112 19.488 13.832 19.096 12.992C18.256 11.088 18.144 10.528 18.144 10.08C18.088 9.46399 18.032 8.62399 18.704 8.06399C19.712 7.16799 21 7.22399 21.672 7.44799C21.672 7.39199 21.672 7.39199 21.672 7.33599C21.56 6.88799 21.336 6.55199 21.168 6.32799C20.328 5.03999 19.88 4.36799 19.096 3.69599C18.76 3.41599 17.92 2.74399 16.688 2.29599C16.128 2.12799 15.456 1.90399 14.616 1.90399C14.336 1.90399 14.056 1.90399 13.776 1.95999C12.656 2.18399 11.592 2.79999 10.752 3.86399C9.912 4.92799 9.688 5.93599 9.464 7.11199C9.352 7.55999 9.352 7.95199 9.296 8.39999C9.632 8.11999 10.08 7.78399 10.752 7.61599C11.144 7.50399 12.152 7.16799 12.992 7.67199C13.272 7.83999 13.664 8.17599 14.056 9.12799C14.896 11.48 14.056 13.888 13.944 14.112C13.888 14.336 13.776 14.504 13.72 14.616C13.608 14.896 13.496 15.12 13.384 15.568C13.328 15.96 13.272 16.296 13.272 16.688C13.44 16.688 13.608 16.744 13.776 16.856C14.056 17.136 14.112 17.528 14.168 17.696C14.28 18.592 14.28 19.712 14.28 20.832C14.28 21.728 14.28 22.568 14.336 23.128C14.448 24.416 14.84 25.312 15.4 25.76C15.792 26.096 16.296 26.096 16.576 26.152C16.632 26.152 16.632 26.152 16.688 26.152C17.528 26.152 18.872 25.592 19.376 24.808C19.656 24.36 19.768 23.968 19.88 23.408C19.936 23.072 19.936 22.904 19.992 22.568C19.992 22.4 20.048 22.12 20.048 21.784C20.048 21.504 20.104 21.168 20.16 20.776C20.216 19.824 20.384 18.704 20.44 18.088C20.496 17.36 20.832 16.744 21.112 16.352C20.72 16.296 20.328 15.96 20.104 15.4Z" fill="#3F6CCD"/>
<path d="M21.56 10.696C21.56 10.584 21.616 10.416 21.672 10.08C21.728 9.63201 21.784 9.24001 21.784 8.79201C21.672 8.73601 21.616 8.68001 21.504 8.62401C21.504 8.62401 20.328 8.12001 19.432 8.90401C19.208 9.12801 19.208 9.57601 19.264 9.96801C19.264 10.248 19.32 10.64 20.16 12.544C20.552 13.44 20.664 13.72 20.72 13.944C20.776 14.168 20.832 14.28 21.168 14.896C21.224 15.008 21.28 15.12 21.392 15.232C21.504 15.064 21.56 14.784 21.616 14.336L21.672 14.168C21.784 13.664 21.728 13.272 21.728 12.6C21.728 12.264 21.672 12.04 21.672 11.872C21.616 11.592 21.616 11.368 21.616 11.032C21.504 10.864 21.504 10.808 21.56 10.696ZM20.496 9.52001C20.44 9.57601 20.328 9.68801 20.16 9.74401C19.936 9.80001 19.768 9.63201 19.712 9.63201C19.656 9.57601 19.488 9.40801 19.544 9.24001C19.6 9.12801 19.656 9.12801 19.88 9.07201C20.048 9.01601 20.496 8.96001 20.608 9.07201C20.776 9.18401 20.552 9.46401 20.496 9.52001Z" fill="#3F6CCD"/>
<path d="M12.936 9.63199C12.768 9.18399 12.6 8.90399 12.376 8.79199C11.984 8.56799 11.368 8.73599 11.032 8.84799C10.416 9.01599 10.024 9.40799 9.744 9.63199C9.576 9.79999 9.408 9.96799 9.24 10.192C9.24 10.584 9.296 10.976 9.352 11.368V11.424L9.24 12.544C9.128 13.048 9.072 14 9.632 14.952C9.912 15.512 10.304 15.96 10.808 16.24C11.144 16.464 11.592 16.632 12.096 16.744C12.096 16.352 12.152 15.904 12.208 15.512C12.32 14.952 12.432 14.672 12.6 14.336C12.656 14.168 12.712 14.056 12.824 13.888C12.88 13.72 13.664 11.592 12.936 9.63199ZM12.488 10.136C12.32 10.304 12.04 10.304 12.04 10.304C11.76 10.304 11.592 10.136 11.48 9.96799C11.424 9.91199 11.368 9.79999 11.424 9.68799C11.48 9.57599 11.592 9.51999 11.648 9.51999C11.928 9.40799 12.152 9.51999 12.32 9.57599C12.488 9.63199 12.656 9.68799 12.656 9.79999C12.712 9.96799 12.544 10.08 12.488 10.136Z" fill="#3F6CCD"/>
<path d="M22.568 18.704C23.464 18.592 24.08 18.144 24.192 18.032C24.584 17.752 25.088 17.192 24.976 16.968C24.92 16.856 24.752 16.912 23.856 16.968C23.632 16.968 22.96 17.136 22.512 17.024C22.456 17.024 22.456 17.024 22.4 17.024C22.288 16.968 22.176 16.912 22.12 16.8C21.84 17.192 21.448 17.696 21.392 18.368C21.392 18.48 21.392 18.536 21.336 18.648C21.784 18.76 22.176 18.76 22.568 18.704Z" fill="#3F6CCD"/>
<path d="M10.472 17.248C10.416 17.192 10.304 17.192 10.248 17.136C9.576 16.744 9.072 16.128 8.68 15.456C8.008 14.224 8.064 12.992 8.176 12.376L8.232 11.424C8.008 9.91201 8.064 8.45601 8.344 7.00001C8.568 5.76801 8.848 4.53601 9.856 3.24801C10.192 2.80001 10.584 2.40801 10.976 2.12801C10.08 1.73601 9.128 1.51201 8.176 1.45601C7.448 1.40001 6.44 1.34401 5.264 1.90401C4.984 2.01601 4.144 2.40801 3.472 3.30401C3.024 3.86401 2.688 4.70401 2.52 5.65601C2.352 6.49601 2.296 7.50401 2.632 9.40801C2.856 10.752 3.08 11.648 3.528 13.496C3.584 13.72 3.92 14.728 4.648 16.968L4.704 17.08C4.816 17.472 5.152 18.312 5.88 19.152C6.384 19.712 6.832 20.048 7.224 20.048C7.28 20.048 7.28 20.048 7.336 20.048C8.064 20.048 8.568 19.488 9.016 19.04C9.016 18.984 10.08 17.696 10.472 17.248Z" fill="#3F6CCD"/>
<path d="M13.048 17.976H12.992C12.824 17.976 12.6 17.976 12.376 17.92C12.264 18.088 12.096 18.2 11.984 18.312C11.536 18.592 10.976 18.816 10.416 18.928C9.912 19.096 9.632 19.096 9.632 19.264C9.576 19.488 10.136 19.768 10.416 19.88C11.368 20.272 12.32 20.048 12.488 19.992C12.6 19.936 12.88 19.824 13.16 19.656C13.16 19.04 13.104 18.48 13.048 18.032V17.976Z" fill="#3F6CCD"/>
</svg>
