<svg width="28" height="28" viewBox="0 0 28 28" fill="none" xmlns="http://www.w3.org/2000/svg">
<path d="M13.7054 3.31248C12.8307 3.31529 12.2243 3.39236 11.4914 3.51892C9.3269 3.89579 8.93258 4.68723 8.93258 6.14579V8.37498H13.9951V9.49998H8.74021H6.29333C4.81058 9.49998 3.5129 10.1986 3.10171 11.8732C2.63708 13.7952 2.61627 14.999 3.10171 17.006C3.47015 18.5028 4.28183 19.625 5.76515 19.625H7.80815V16.754C7.80815 15.0856 9.31902 13.4375 11.0504 13.4375H15.1206C16.5398 13.4375 17.9331 12.3901 17.9331 10.9754V6.14579C17.9331 4.77386 16.9437 3.74786 15.5605 3.51779C15.5948 3.51442 14.5728 3.30911 13.7054 3.31248ZM10.9019 5.56248C11.3637 5.56248 11.7456 5.94329 11.7456 6.40736C11.7456 6.87592 11.3637 7.24998 10.9019 7.24998C10.4311 7.24998 10.0581 6.87648 10.0581 6.40736C10.0581 5.94498 10.4311 5.56248 10.9019 5.56248Z" fill="url(#paint0_linear_35_58)"/>
<path d="M13.1603 24.6875C14.035 24.6847 14.6414 24.6076 15.3743 24.4811C17.5388 24.1042 17.9331 23.3128 17.9331 21.8542V19.625H12.8706V18.5H18.1261H20.573C22.0557 18.5 23.3534 17.8014 23.7646 16.1268C24.2292 14.2048 24.25 13.001 23.7646 10.994C23.3956 9.49719 22.5839 8.375 21.1006 8.375H19.0576V11.246C19.0576 12.9144 17.5467 14.5625 15.8153 14.5625H11.7451C10.3259 14.5625 8.93259 15.6099 8.93259 17.0246V21.8542C8.93259 23.2261 9.92202 24.2521 11.3052 24.4822C11.2709 24.4856 12.293 24.6909 13.1603 24.6875ZM15.9644 22.4375C15.5026 22.4375 15.1206 22.0567 15.1206 21.5926C15.1206 21.1241 15.5026 20.75 15.9644 20.75C16.4352 20.75 16.8081 21.1235 16.8081 21.5926C16.8081 22.055 16.4346 22.4375 15.9644 22.4375Z" fill="url(#paint1_linear_35_58)"/>
<defs>
<linearGradient id="paint0_linear_35_58" x1="6.06158" y1="7.79673" x2="14.9806" y2="15.2808" gradientUnits="userSpaceOnUse">
<stop stop-color="#26ABE7"/>
<stop offset="1" stop-color="#086DBF"/>
</linearGradient>
<linearGradient id="paint1_linear_35_58" x1="20.0543" y1="21.8249" x2="13.4073" y2="12.3316" gradientUnits="userSpaceOnUse">
<stop stop-color="#FEB705"/>
<stop offset="1" stop-color="#FFDA1C"/>
</linearGradient>
</defs>
</svg>
