<svg width="27" height="28" viewBox="0 0 27 28" fill="none" xmlns="http://www.w3.org/2000/svg">
<path d="M13.5 12.2C12.5055 12.2 11.7 13.0055 11.7 14C11.7 14.9945 12.5055 15.8 13.5 15.8C14.4945 15.8 15.3 14.9945 15.3 14C15.3 13.0055 14.4945 12.2 13.5 12.2Z" fill="#348E91"/>
<path d="M13.5 10.175C19.1313 10.175 22.725 12.4403 22.725 14C22.725 14.7911 21.8682 15.692 20.4327 16.4093C18.6336 17.3093 16.1064 17.825 13.5 17.825C7.8687 17.825 4.275 15.5597 4.275 14C4.275 13.2089 5.1318 12.308 6.5673 11.5907C8.3664 10.6907 10.8936 10.175 13.5 10.175ZM13.5 8.59998C7.5357 8.59998 2.7 11.0174 2.7 14C2.7 16.9826 7.5357 19.4 13.5 19.4C19.4643 19.4 24.3 16.9826 24.3 14C24.3 11.0174 19.4643 8.59998 13.5 8.59998Z" fill="#348E91"/>
<path d="M9.6111 5.83788C11.3535 5.83788 14.4693 8.02848 16.8129 12.0875C18.1161 14.3447 18.9333 16.7909 19.053 18.7988C19.1493 20.4008 18.7974 21.5933 18.1125 21.9893C17.91 22.1063 17.6742 22.163 17.3889 22.163C15.6465 22.163 12.5307 19.9724 10.1871 15.9134C8.8839 13.6562 8.0667 11.21 7.947 9.20208C7.8507 7.60008 8.2026 6.40758 8.8875 6.01158C9.09 5.89458 9.3258 5.83788 9.6111 5.83788ZM9.6111 4.26288C9.0612 4.26288 8.5518 4.38708 8.1 4.64718C5.517 6.13848 5.841 11.5349 8.8236 16.7C11.2851 20.9633 14.7888 23.7371 17.3898 23.7371C17.9397 23.7371 18.4491 23.6129 18.9009 23.3528C21.4839 21.8615 21.1599 16.4651 18.1773 11.3C15.7149 7.03668 12.2112 4.26288 9.6111 4.26288Z" fill="#348E91"/>
<path d="M17.3889 5.83788C17.6733 5.83788 17.91 5.89458 18.1125 6.01158C18.7974 6.40668 19.1493 7.60008 19.053 9.20208C18.9324 11.21 18.1161 13.6562 16.8129 15.9134C14.4693 19.9733 11.3535 22.163 9.6111 22.163C9.3267 22.163 9.09 22.1063 8.8875 21.9893C8.2026 21.5942 7.8507 20.4008 7.947 18.7988C8.0676 16.7909 8.8839 14.3447 10.1871 12.0875C12.5316 8.02758 15.6474 5.83788 17.3889 5.83788ZM17.3889 4.26288C14.7879 4.26288 11.2851 7.03668 8.8227 11.3C5.841 16.466 5.517 21.8615 8.1 23.3528C8.5509 23.6129 9.0603 23.7371 9.6111 23.7371C12.2121 23.7371 15.7149 20.9633 18.1773 16.7C21.159 11.534 21.483 6.13848 18.9 4.64718C18.4491 4.38618 17.9397 4.26288 17.3889 4.26288Z" fill="#348E91"/>
</svg>
