<svg width="27" height="28" viewBox="0 0 27 28" fill="none" xmlns="http://www.w3.org/2000/svg">
<g clip-path="url(#clip0_35_52)">
<path d="M11.1522 7.31055C8.17826 7.31055 6.31957 8.79704 5.57609 11.77C6.6913 10.2835 7.99239 9.72639 9.47935 10.0977C10.3278 10.3096 10.9342 10.9252 11.6057 11.6065C12.6986 12.7156 13.9639 14 16.7283 14C19.7022 14 21.5609 12.5135 22.3043 9.54005C21.1891 11.0265 19.888 11.5842 18.4011 11.2129C17.5531 11.001 16.9467 10.3853 16.2752 9.70408C15.1818 8.59444 13.9161 7.31055 11.1522 7.31055ZM5.57609 14C2.60217 14 0.743478 15.4865 0 18.4599C1.11522 16.9734 2.4163 16.4158 3.90326 16.7876C4.75129 16.9999 5.35769 17.6152 6.02914 18.2959C7.12252 19.4055 8.38829 20.6899 11.1522 20.6899C14.1261 20.6899 15.9848 19.2034 16.7283 16.23C15.613 17.7165 14.312 18.2741 12.825 17.9023C11.9765 17.6904 11.3701 17.0747 10.6987 16.394C9.60574 15.2844 8.34043 14 5.57609 14Z" fill="#00ACC1"/>
</g>
<defs>
<clipPath id="clip0_35_52">
<rect width="22.3043" height="22.3043" fill="white" transform="translate(0 2.84784)"/>
</clipPath>
</defs>
</svg>
