<svg width="27" height="28" viewBox="0 0 27 28" fill="none" xmlns="http://www.w3.org/2000/svg">
<path d="M23.625 3.875H3.375V24.125H23.625V3.875Z" fill="#1976D2"/>
<path d="M15.4631 12.875H8.00269V14.711H10.6785V23H12.7986V14.711H15.4631V12.875Z" fill="white"/>
<path d="M22.0466 15.1723C22.0466 15.1723 21.0414 14.5018 19.9052 14.5018C18.7689 14.5018 18.36 15.0418 18.36 15.6189C18.36 17.1084 22.5118 16.9593 22.5118 19.9569C22.5118 24.5744 16.1814 22.5264 16.1814 22.5264V20.3113C16.1814 20.3113 17.3919 21.2236 18.8437 21.2236C20.2956 21.2236 20.2404 20.2741 20.2404 20.1436C20.2404 18.7661 16.1257 18.7661 16.1257 15.7123C16.1257 11.5604 22.1209 13.1984 22.1209 13.1984L22.0466 15.1723Z" fill="white"/>
</svg>
